<svg width="54" height="54" viewBox="0 0 54 54" fill="none" xmlns="http://www.w3.org/2000/svg">
<g clip-path="url(#clip0_153_728)">
<path d="M0 0H53.4V54H0V0Z" fill="#6B6A66"/>
<path d="M14.0411 45.1261L18.1276 42.6252C18.916 44.0388 19.6332 45.2347 21.3534 45.2347C23.0024 45.2347 24.042 44.5824 24.042 42.0453V24.791H29.0602V42.117C29.0602 47.373 26.0135 49.7654 21.5686 49.7654C17.5541 49.7654 15.2239 47.6629 14.041 45.1257" fill="#F6F5F2"/>
<path d="M31.7861 44.5825L35.8722 42.1901C36.9478 43.9664 38.3458 45.2713 40.819 45.2713C42.8983 45.2713 44.2242 44.22 44.2242 42.77C44.2242 41.0301 42.8621 40.4138 40.568 39.3992L39.3138 38.8551C35.6931 37.2967 33.2914 35.3394 33.2914 31.207C33.2914 27.4009 36.159 24.501 40.6399 24.501C43.8301 24.501 46.1242 25.6248 47.7729 28.5609L43.8657 31.0981C43.0054 29.5396 42.0737 28.9235 40.6399 28.9235C39.1703 28.9235 38.2382 29.8659 38.2382 31.0981C38.2382 32.6206 39.1703 33.237 41.3207 34.1795L42.5752 34.7232C46.8409 36.5719 49.2426 38.4566 49.2426 42.6975C49.2426 47.2651 45.694 49.7659 40.9266 49.7659C36.2667 49.7659 33.2556 47.5187 31.7861 44.5825Z" fill="#F6F5F2"/>
</g>
<defs>
<clipPath id="clip0_153_728">
<rect width="53.4" height="54" fill="white"/>
</clipPath>
</defs>
</svg>
